<svg width="24" height="24" viewBox="0 0 24 24" fill="none" xmlns="http://www.w3.org/2000/svg">
<path opacity="0.4" d="M12 22C17.5228 22 22 17.5228 22 12C22 6.47715 17.5228 2 12 2C6.47715 2 2 6.47715 2 12C2 17.5228 6.47715 22 12 22Z" fill="#A0AEC0"/>
<path d="M11.9998 17.25C11.5858 17.25 11.2498 16.914 11.2498 16.5V11.929C11.2498 11.515 11.5858 11.179 11.9998 11.179C12.4138 11.179 12.7498 11.515 12.7498 11.929V16.5C12.7498 16.914 12.4138 17.25 11.9998 17.25ZM13.0198 8.5C13.0198 7.948 12.5728 7.5 12.0198 7.5H12.0098C11.4578 7.5 11.0146 7.948 11.0146 8.5C11.0146 9.052 11.4678 9.5 12.0198 9.5C12.5718 9.5 13.0198 9.052 13.0198 8.5Z" fill="#A0AEC0"/>
</svg>
