<svg width="24" height="24" viewBox="0 0 24 24" fill="none" xmlns="http://www.w3.org/2000/svg">
<path opacity="0.4" d="M3 18C3 20 4 21 6 21H18C20 21 21 20 21 18V9H3V18Z" fill="#246CF9"/>
<path d="M18 4.5H16.75V3C16.75 2.586 16.414 2.25 16 2.25C15.586 2.25 15.25 2.586 15.25 3V4.5H8.75V3C8.75 2.586 8.414 2.25 8 2.25C7.586 2.25 7.25 2.586 7.25 3V4.5H6C4 4.5 3 5.5 3 7.5V9H21V7.5C21 5.5 20 4.5 18 4.5Z" fill="#246CF9"/>
<path d="M8.02002 14C7.46802 14 7.01489 13.552 7.01489 13C7.01489 12.448 7.45801 12 8.01001 12H8.02002C8.57302 12 9.02002 12.448 9.02002 13C9.02002 13.552 8.57202 14 8.02002 14ZM13.02 13C13.02 12.448 12.573 12 12.02 12H12.01C11.458 12 11.0149 12.448 11.0149 13C11.0149 13.552 11.468 14 12.02 14C12.572 14 13.02 13.552 13.02 13ZM17.02 13C17.02 12.448 16.573 12 16.02 12H16.01C15.458 12 15.0149 12.448 15.0149 13C15.0149 13.552 15.468 14 16.02 14C16.572 14 17.02 13.552 17.02 13ZM9.02002 17C9.02002 16.448 8.57302 16 8.02002 16H8.01001C7.45801 16 7.01489 16.448 7.01489 17C7.01489 17.552 7.46802 18 8.02002 18C8.57202 18 9.02002 17.552 9.02002 17ZM13.02 17C13.02 16.448 12.573 16 12.02 16H12.01C11.458 16 11.0149 16.448 11.0149 17C11.0149 17.552 11.468 18 12.02 18C12.572 18 13.02 17.552 13.02 17ZM17.02 17C17.02 16.448 16.573 16 16.02 16H16.01C15.458 16 15.0149 16.448 15.0149 17C15.0149 17.552 15.468 18 16.02 18C16.572 18 17.02 17.552 17.02 17Z" fill="#246CF9"/>
</svg>
