<svg width="24" height="24" viewBox="0 0 24 24" fill="none" xmlns="http://www.w3.org/2000/svg">
<path opacity="0.4" d="M3 18C3 20 4 21 6 21H18C20 21 21 20 21 18V9H3V18Z" fill="#718096"/>
<path d="M18 4.5H16.75V3C16.75 2.586 16.414 2.25 16 2.25C15.586 2.25 15.25 2.586 15.25 3V4.5H8.75V3C8.75 2.586 8.414 2.25 8 2.25C7.586 2.25 7.25 2.586 7.25 3V4.5H6C4 4.5 3 5.5 3 7.5V9H21V7.5C21 5.5 20 4.5 18 4.5Z" fill="#718096"/>
<path d="M8.01978 14C7.46778 14 7.01465 13.552 7.01465 13C7.01465 12.448 7.45777 12 8.00977 12H8.01978C8.57278 12 9.01978 12.448 9.01978 13C9.01978 13.552 8.57178 14 8.01978 14ZM13.0198 13C13.0198 12.448 12.5728 12 12.0198 12H12.0098C11.4578 12 11.0146 12.448 11.0146 13C11.0146 13.552 11.4678 14 12.0198 14C12.5718 14 13.0198 13.552 13.0198 13ZM17.0198 13C17.0198 12.448 16.5728 12 16.0198 12H16.0098C15.4578 12 15.0146 12.448 15.0146 13C15.0146 13.552 15.4678 14 16.0198 14C16.5718 14 17.0198 13.552 17.0198 13ZM9.01978 17C9.01978 16.448 8.57278 16 8.01978 16H8.00977C7.45777 16 7.01465 16.448 7.01465 17C7.01465 17.552 7.46778 18 8.01978 18C8.57178 18 9.01978 17.552 9.01978 17ZM13.0198 17C13.0198 16.448 12.5728 16 12.0198 16H12.0098C11.4578 16 11.0146 16.448 11.0146 17C11.0146 17.552 11.4678 18 12.0198 18C12.5718 18 13.0198 17.552 13.0198 17ZM17.0198 17C17.0198 16.448 16.5728 16 16.0198 16H16.0098C15.4578 16 15.0146 16.448 15.0146 17C15.0146 17.552 15.4678 18 16.0198 18C16.5718 18 17.0198 17.552 17.0198 17Z" fill="#718096"/>
</svg>
