<svg width="37" height="36" viewBox="0 0 37 36" fill="none" xmlns="http://www.w3.org/2000/svg">
<path d="M32.357 14.7575C31.589 9.27502 27.2255 4.90995 21.743 4.14345C21.224 4.06995 20.6795 4.23058 20.273 4.58308C19.862 4.94158 19.625 5.4575 19.625 6.0005V15.0126C19.625 16.0401 20.462 16.8755 21.488 16.8755H30.5C31.0415 16.8755 31.559 16.64 31.916 16.229C32.27 15.8225 32.4305 15.2855 32.357 14.7575Z" fill="#246CF9"/>
<path opacity="0.4" d="M28.9719 20.4046C28.6254 19.9801 28.1124 19.7355 27.5649 19.7355H18.6383C17.6048 19.7355 16.7633 18.894 16.7633 17.8605V8.93411C16.7633 8.38811 16.5203 7.87495 16.0958 7.52695C15.6848 7.19095 15.1508 7.05745 14.6378 7.15945C11.4098 7.80895 8.50887 9.76647 6.68337 12.534C4.83687 15.3315 4.20389 18.7186 4.90139 22.0681C5.88389 26.7841 9.71334 30.612 14.4308 31.596C15.3203 31.782 16.2129 31.8736 17.0964 31.8736C19.5384 31.8736 21.9099 31.1731 23.9634 29.8171C26.7309 27.9901 28.6883 25.0905 29.3378 21.8625C29.4443 21.348 29.3109 20.8156 28.9719 20.4046Z" fill="#246CF9"/>
</svg>
