<svg width="37" height="36" viewBox="0 0 37 36" fill="none" xmlns="http://www.w3.org/2000/svg">
<path opacity="0.4" d="M32 31.5H7.25C4.937 31.5 3.5 30.063 3.5 27.75V6C3.5 5.172 4.172 4.5 5 4.5C5.828 4.5 6.5 5.172 6.5 6V27.75C6.5 28.4235 6.5765 28.5 7.25 28.5H32C32.828 28.5 33.5 29.172 33.5 30C33.5 30.828 32.828 31.5 32 31.5Z" fill="#002395"/>
<path d="M11.0004 22.5001C10.6164 22.5001 10.2324 22.3531 9.93987 22.0606C9.35337 21.4741 9.35337 20.526 9.93987 19.9395L14.8824 14.9972C16.0479 13.8302 17.9484 13.8287 19.1184 14.9897L21.5259 17.3806L27.9369 10.9427C28.5219 10.3547 29.4699 10.3531 30.0579 10.9381C30.6459 11.5231 30.6474 12.4712 30.0624 13.0592L23.6514 19.4972C22.4874 20.6687 20.5854 20.6731 19.4124 19.5091L17.0034 17.1166L12.0609 22.0592C11.7684 22.3532 11.3844 22.5001 11.0004 22.5001Z" fill="#002395"/>
</svg>
