<svg width="24" height="24" viewBox="0 0 24 24" fill="none" xmlns="http://www.w3.org/2000/svg">
<path opacity="0.4" d="M12.5 21H11.5C10.5 21 10 20.5 10 19.5V4.5C10 3.5 10.5 3 11.5 3H12.5C13.5 3 14 3.5 14 4.5V19.5C14 20.5 13.5 21 12.5 21Z" fill="#7CA7FB"/>
<path d="M19.5 21H18.5C17.5 21 17 20.5 17 19.5V9.5C17 8.5 17.5 8 18.5 8H19.5C20.5 8 21 8.5 21 9.5V19.5C21 20.5 20.5 21 19.5 21Z" fill="#7CA7FB"/>
<path d="M5.5 21H4.5C3.5 21 3 20.5 3 19.5V13.5C3 12.5 3.5 12 4.5 12H5.5C6.5 12 7 12.5 7 13.5V19.5C7 20.5 6.5 21 5.5 21Z" fill="#718096"/>
</svg>
