<svg width="37" height="36" viewBox="0 0 37 36" fill="none" xmlns="http://www.w3.org/2000/svg">
<path opacity="0.4" d="M19.25 31.5H17.75C16.25 31.5 15.5 30.75 15.5 29.25V6.75C15.5 5.25 16.25 4.5 17.75 4.5H19.25C20.75 4.5 21.5 5.25 21.5 6.75V29.25C21.5 30.75 20.75 31.5 19.25 31.5Z" fill="#002395"/>
<path d="M29.75 31.5H28.25C26.75 31.5 26 30.75 26 29.25V14.25C26 12.75 26.75 12 28.25 12H29.75C31.25 12 32 12.75 32 14.25V29.25C32 30.75 31.25 31.5 29.75 31.5Z" fill="#002395"/>
<path d="M8.75 31.5H7.25C5.75 31.5 5 30.75 5 29.25V20.25C5 18.75 5.75 18 7.25 18H8.75C10.25 18 11 18.75 11 20.25V29.25C11 30.75 10.25 31.5 8.75 31.5Z" fill="#718096"/>
</svg>
