<svg width="24" height="24" viewBox="0 0 24 24" fill="none" xmlns="http://www.w3.org/2000/svg">
<path opacity="0.4" d="M21 21H4.5C2.958 21 2 20.042 2 18.5V4C2 3.448 2.448 3 3 3C3.552 3 4 3.448 4 4V18.5C4 18.949 4.051 19 4.5 19H21C21.552 19 22 19.448 22 20C22 20.552 21.552 21 21 21Z" fill="#7CA7FB"/>
<path d="M6.99976 15C6.74376 15 6.48776 14.902 6.29276 14.707C5.90176 14.316 5.90176 13.6839 6.29276 13.2929L9.58776 9.99802C10.3648 9.22003 11.6318 9.21902 12.4118 9.99302L14.0168 11.587L18.2908 7.29502C18.6808 6.90302 19.3128 6.90197 19.7048 7.29197C20.0968 7.68197 20.0978 8.31403 19.7078 8.70603L15.4338 12.998C14.6578 13.779 13.3898 13.782 12.6078 13.006L11.0018 11.411L7.70676 14.706C7.51176 14.902 7.25576 15 6.99976 15Z" fill="#7CA7FB"/>
</svg>
