<svg width="21" height="20" viewBox="0 0 21 20" fill="none" xmlns="http://www.w3.org/2000/svg">
<path opacity="0.4" d="M17.6601 11.2312C18.1134 10.4729 18.1134 9.52778 17.6601 8.76945C16.6376 7.05778 14.3417 4.16699 10.5 4.16699C6.65837 4.16699 4.3625 7.05778 3.34 8.76945C2.88667 9.52778 2.88667 10.4729 3.34 11.2312C4.3625 12.9429 6.65837 15.8337 10.5 15.8337C14.3417 15.8337 16.6376 12.9429 17.6601 11.2312Z" fill="#8091CA"/>
<path d="M10.4997 7.08301C10.1947 7.08301 9.90555 7.14303 9.62972 7.2297C9.79389 7.4547 9.89299 7.72966 9.89299 8.02966C9.89299 8.783 9.283 9.39299 8.52966 9.39299C8.22966 9.39299 7.95553 9.29305 7.7297 9.12972C7.64303 9.40639 7.58301 9.69467 7.58301 9.99967C7.58301 11.6105 8.88884 12.9163 10.4997 12.9163C12.1105 12.9163 13.4163 11.6105 13.4163 9.99967C13.4163 8.38884 12.1105 7.08301 10.4997 7.08301Z" fill="#8091CA"/>
</svg>
