<svg width="21" height="20" viewBox="0 0 21 20" fill="none" xmlns="http://www.w3.org/2000/svg">
<path opacity="0.4" d="M17.6601 11.2307C18.1134 10.4724 18.1134 9.52729 17.6601 8.76896C16.6376 7.05729 14.3417 4.1665 10.5 4.1665C6.65837 4.1665 4.3625 7.05729 3.34 8.76896C2.88667 9.52729 2.88667 10.4724 3.34 11.2307C4.3625 12.9424 6.65837 15.8332 10.5 15.8332C14.3417 15.8332 16.6376 12.9424 17.6601 11.2307Z" fill="#7CA7FB"/>
<path d="M10.4997 7.0835C10.1947 7.0835 9.90555 7.14352 9.62972 7.23018C9.79389 7.45518 9.89299 7.73015 9.89299 8.03015C9.89299 8.78348 9.283 9.39347 8.52966 9.39347C8.22966 9.39347 7.95553 9.29354 7.7297 9.13021C7.64303 9.40688 7.58301 9.69516 7.58301 10.0002C7.58301 11.611 8.88884 12.9168 10.4997 12.9168C12.1105 12.9168 13.4163 11.611 13.4163 10.0002C13.4163 8.38933 12.1105 7.0835 10.4997 7.0835Z" fill="#7CA7FB"/>
</svg>
