<svg width="24" height="24" viewBox="0 0 24 24" fill="none" xmlns="http://www.w3.org/2000/svg">
<path opacity="0.4" d="M18 9V12.465C18 12.625 17.8731 12.749 17.7141 12.758C14.9921 12.907 12.75 15.166 12.75 17.92C12.75 18.878 13.014 19.781 13.478 20.553C13.596 20.75 13.439 21 13.209 21H6C4 21 3 20 3 18V6C3 4 4 3 6 3H12V6C12 7.657 13.343 9 15 9H18Z" fill="#246CF9"/>
<path d="M15 9H18L12 3V6C12 8 13 9 15 9Z" fill="#246CF9"/>
<path d="M7.75 12C7.75 12.414 7.414 12.75 7 12.75C6.586 12.75 6.25 12.414 6.25 12C6.25 11.586 6.586 11.25 7 11.25C7.414 11.25 7.75 11.586 7.75 12ZM7 15.25C6.586 15.25 6.25 15.586 6.25 16C6.25 16.414 6.586 16.75 7 16.75C7.414 16.75 7.75 16.414 7.75 16C7.75 15.586 7.414 15.25 7 15.25ZM14.75 12C14.75 11.586 14.414 11.25 14 11.25H9.5C9.086 11.25 8.75 11.586 8.75 12C8.75 12.414 9.086 12.75 9.5 12.75H14C14.414 12.75 14.75 12.414 14.75 12ZM11.75 16C11.75 15.586 11.414 15.25 11 15.25H9.5C9.086 15.25 8.75 15.586 8.75 16C8.75 16.414 9.086 16.75 9.5 16.75H11C11.414 16.75 11.75 16.414 11.75 16Z" fill="#246CF9"/>
<path d="M22.53 21.47L20.98 19.92C21.358 19.343 21.583 18.657 21.583 17.917C21.583 15.895 19.938 14.25 17.917 14.25C15.895 14.25 14.25 15.895 14.25 17.917C14.25 19.939 15.895 21.584 17.917 21.584C18.657 21.584 19.3429 21.36 19.9199 20.982L21.47 22.531C21.616 22.677 21.808 22.751 22 22.751C22.192 22.751 22.384 22.678 22.53 22.531C22.823 22.237 22.823 21.762 22.53 21.47ZM15.75 17.917C15.75 16.722 16.722 15.75 17.917 15.75C19.111 15.75 20.083 16.722 20.083 17.917C20.083 19.112 19.111 20.084 17.917 20.084C16.722 20.083 15.75 19.111 15.75 17.917Z" fill="#246CF9"/>
</svg>
