<svg width="24" height="24" viewBox="0 0 24 24" fill="none" xmlns="http://www.w3.org/2000/svg">
<g id="folder-open">
<path id="Vector" d="M5.09497 12.573C5.62497 11.624 6.62899 11.035 7.71899 11.036L18.9861 11.042L19 11.036V10C19 8 18 7 16 7H10L8 5H5C3 5 2 6 2 8V18.496L2.0061 18.493C2.0081 18.255 2.06092 18.011 2.19092 17.78L5.09497 12.573Z" fill="white"/>
<path id="Vector_2" opacity="0.4" d="M20.4988 11.043L18.9869 11.042L7.71977 11.036C6.62977 11.035 5.62475 11.624 5.09575 12.573L2.19169 17.78C2.06269 18.012 2.00888 18.255 2.00688 18.493C2.00088 19.279 2.62473 20 3.50273 20H16.2837C17.3727 20 18.3768 19.412 18.9058 18.464L21.8099 13.263C22.3649 12.268 21.6418 11.043 20.4988 11.043Z" fill="white"/>
</g>
</svg>
