<svg width="25" height="24" viewBox="0 0 25 24" fill="none" xmlns="http://www.w3.org/2000/svg">
<path opacity="0.4" d="M8.5 21H16.5C18.5 21 19.5 20 19.5 18V12C19.5 10 18.5 9 16.5 9H8.5C6.5 9 5.5 10 5.5 12V18C5.5 20 6.5 21 8.5 21Z" fill="#246CF9"/>
<path d="M9.25 9V7C9.25 5.21 10.71 3.75 12.5 3.75C14.29 3.75 15.75 5.21 15.75 7V9H16.5C16.769 9 17.017 9.02111 17.25 9.05811V7C17.25 4.38 15.12 2.25 12.5 2.25C9.88 2.25 7.75 4.38 7.75 7V9.05811C7.983 9.02211 8.231 9 8.5 9H9.25Z" fill="#246CF9"/>
<path d="M13.7698 14C13.7698 13.31 13.2098 12.75 12.5198 12.75H12.5098C11.8198 12.75 11.2646 13.31 11.2646 14C11.2646 14.396 11.4618 14.7329 11.7498 14.9619V17C11.7498 17.414 12.0858 17.75 12.4998 17.75C12.9138 17.75 13.2498 17.414 13.2498 17V14.9871C13.5568 14.7601 13.7698 14.412 13.7698 14Z" fill="#246CF9"/>
</svg>
