<svg width="24" height="24" viewBox="0 0 24 24" fill="none" xmlns="http://www.w3.org/2000/svg">
<path opacity="0.4" d="M15 7V6C15 4 14 3 12 3H6C4 3 3 4 3 6V18C3 20 4 21 6 21H12C14 21 15 20 15 18V17" fill="#A0AEC0"/>
<path d="M21.692 11.713C21.654 11.621 21.599 11.538 21.53 11.469L18.53 8.46902C18.237 8.17602 17.762 8.17602 17.469 8.46902C17.176 8.76202 17.176 9.23702 17.469 9.53002L19.189 11.25H8C7.586 11.25 7.25 11.586 7.25 12C7.25 12.414 7.586 12.75 8 12.75H19.189L17.469 14.47C17.176 14.763 17.176 15.238 17.469 15.531C17.615 15.677 17.807 15.751 17.999 15.751C18.191 15.751 18.383 15.678 18.529 15.531L21.529 12.531C21.598 12.462 21.653 12.379 21.691 12.287C21.768 12.103 21.768 11.897 21.692 11.713Z" fill="#A0AEC0"/>
</svg>
