<svg width="24" height="24" viewBox="0 0 24 24" fill="none" xmlns="http://www.w3.org/2000/svg">
<path d="M15.6004 5.44992V20.99C15.4104 21.01 15.2304 20.9799 15.0504 20.9099L8.95041 18.6299C8.77041 18.5599 8.59039 18.54 8.40039 18.55V3.00998C8.59039 2.98998 8.77041 3.02006 8.95041 3.09006L15.0504 5.37009C15.2304 5.44009 15.4104 5.45992 15.6004 5.44992Z" fill="#7CA7FB"/>
<path opacity="0.4" d="M7.87 3.13965C8.04 3.05965 8.20999 3.00977 8.39999 3.00977V18.5498C8.21999 18.5498 8.04 18.5997 7.87 18.6797L4.45001 20.3997C3.78001 20.7297 3 20.2498 3 19.4998V6.81982C3 6.05982 3.42999 5.36979 4.10999 5.02979L7.87 3.13965Z" fill="#7CA7FB"/>
<path opacity="0.4" d="M20.9996 4.49999V17.1799C20.9996 17.9399 20.5696 18.63 19.8896 18.97L16.1296 20.8601C15.9596 20.9401 15.7896 20.99 15.5996 20.99V5.44994C15.7796 5.44994 15.9596 5.40006 16.1296 5.32006L19.5496 3.60009C20.2196 3.27009 20.9996 3.74999 20.9996 4.49999Z" fill="#7CA7FB"/>
</svg>
