<svg width="37" height="36" viewBox="0 0 37 36" fill="none" xmlns="http://www.w3.org/2000/svg">
<path opacity="0.4" d="M11.975 17.97V29.19L7.17502 31.6051C6.17002 32.1001 5 31.3799 5 30.2549V17.625C5 16.605 5.56999 15.6749 6.48499 15.2249L10.505 13.2001C10.49 13.3051 10.49 13.395 10.49 13.5C10.49 15.21 11.075 16.695 11.975 17.97ZM18.485 23.5049C17.24 22.6649 15.65 21.6602 14.225 20.4002V29.0552L22.775 32.265V20.3851C21.335 21.6451 19.73 22.6649 18.485 23.5049ZM29.825 13.0049L26.375 14.7301C26.18 15.9151 25.7 16.995 25.025 17.94V32.1299L30.515 29.3701C31.43 28.9051 32 27.975 32 26.955V14.3401C32 13.0051 30.83 12.5099 29.825 13.0049Z" fill="#002395"/>
<path d="M18.4852 5.50488C14.0752 5.50488 10.4902 9.075 10.4902 13.5C10.4902 18.495 15.4852 21.4949 18.4852 23.5049C21.4852 21.4949 26.4952 18.495 26.4952 13.5C26.4952 9.075 22.9102 5.50488 18.4852 5.50488ZM18.4852 16.0049C17.1052 16.0049 15.9952 14.88 15.9952 13.5C15.9952 12.12 17.1052 10.9951 18.4852 10.9951C19.8652 10.9951 20.9902 12.12 20.9902 13.5C20.9902 14.88 19.8652 16.0049 18.4852 16.0049Z" fill="#002395"/>
<path opacity="0.4" d="M20.9901 13.5C20.9901 14.88 19.8651 16.0049 18.4851 16.0049C17.1051 16.0049 15.9951 14.88 15.9951 13.5C15.9951 12.12 17.1051 10.9951 18.4851 10.9951C19.8651 10.9951 20.9901 12.12 20.9901 13.5Z" fill="#718096"/>
</svg>
