<svg width="20" height="20" viewBox="0 0 20 20" fill="none" xmlns="http://www.w3.org/2000/svg">
<path opacity="0.4" d="M10.0001 18.3333C14.6025 18.3333 18.3334 14.6024 18.3334 10C18.3334 5.39763 14.6025 1.66667 10.0001 1.66667C5.39771 1.66667 1.66675 5.39763 1.66675 10C1.66675 14.6024 5.39771 18.3333 10.0001 18.3333Z" fill="#7CA7FB"/>
<path d="M10.0001 6.04167C8.97091 6.04167 8.01008 6.44415 7.29175 7.11915V7.03756C7.29175 6.69256 7.01175 6.41256 6.66675 6.41256C6.32175 6.41256 6.04175 6.69256 6.04175 7.03756V8.88917C6.04175 9.23417 6.32175 9.51417 6.66675 9.51417H8.51917C8.86417 9.51417 9.14417 9.23417 9.14417 8.88917C9.14417 8.54417 8.86417 8.26417 8.51917 8.26417H7.93099C8.43432 7.66417 9.18425 7.29167 10.0001 7.29167C11.4934 7.29167 12.7084 8.50667 12.7084 10C12.7084 11.4933 11.4934 12.7083 10.0001 12.7083C8.96508 12.7083 8.03599 12.1317 7.57515 11.2034C7.42182 10.8942 7.04757 10.7675 6.73673 10.9216C6.42757 11.0758 6.30183 11.4501 6.45516 11.7592C7.12933 13.1151 8.48675 13.9583 10.0001 13.9583C12.1826 13.9583 13.9584 12.1825 13.9584 10C13.9584 7.81751 12.1826 6.04167 10.0001 6.04167Z" fill="#246CF9"/>
</svg>
