<svg width="24" height="24" viewBox="0 0 24 24" fill="none" xmlns="http://www.w3.org/2000/svg">
<path opacity="0.4" d="M8.19019 18.069L8.1872 18.067C7.2552 17.527 6.10518 17.525 5.17218 18.063C5.01318 18.155 4.8092 18.1 4.7172 17.942L3.0452 15.057C2.9532 14.898 3.00717 14.695 3.16617 14.603L3.17517 14.598C4.10317 14.06 4.67418 13.067 4.67118 11.995C4.66818 10.924 4.0972 9.93596 3.1702 9.39896L3.16519 9.39597C3.00719 9.30397 2.95319 9.10198 3.04419 8.94498L4.7172 6.05698C4.8092 5.89898 5.0112 5.84497 5.1702 5.93597C6.1042 6.47397 7.2542 6.47298 8.1872 5.93198L8.19019 5.93097C9.11519 5.39497 9.68518 4.40598 9.68518 3.33698C9.68518 3.15098 9.83619 3.00098 10.0222 3.00098H13.9772C14.1632 3.00098 14.3142 3.15198 14.3142 3.33698C14.3142 4.40598 14.8842 5.39497 15.8092 5.93097L15.8122 5.93198C16.7452 6.47298 17.8952 6.47397 18.8292 5.93597C18.9882 5.84497 19.1902 5.89898 19.2822 6.05698L20.9542 8.94296C21.0462 9.10196 20.9922 9.30497 20.8332 9.39697L20.8252 9.40097C19.8982 9.93797 19.3272 10.93 19.3292 12.001C19.3312 13.073 19.9022 14.064 20.8302 14.602L20.8342 14.604C20.9922 14.696 21.0462 14.898 20.9542 15.055L19.2812 17.943C19.1892 18.101 18.9872 18.155 18.8282 18.064C17.8942 17.526 16.7432 17.527 15.8112 18.068L15.8092 18.069C14.8832 18.606 14.3142 19.594 14.3142 20.664C14.3142 20.849 14.1632 20.999 13.9782 20.999H10.0192C9.8332 20.999 9.6822 20.849 9.6832 20.663C9.6842 19.595 9.11519 18.606 8.19019 18.069Z" fill="#A0AEC0"/>
<path d="M12.001 15C13.6578 15 15.001 13.6569 15.001 12C15.001 10.3431 13.6578 9 12.001 9C10.3441 9 9.00098 10.3431 9.00098 12C9.00098 13.6569 10.3441 15 12.001 15Z" fill="#A0AEC0"/>
</svg>
