<svg width="24" height="24" viewBox="0 0 24 24" fill="none" xmlns="http://www.w3.org/2000/svg">
<path opacity="0.4" d="M21 5C16 4 14.2221 3.111 12.0181 2C9.77807 3.111 8 4 3 5C3 6.137 3 9.70192 3 10.8889C3 17.5559 8.667 20.889 12 22C15.333 20.889 21 17.5559 21 10.8889C21 9.66392 21 6.194 21 5Z" fill="#718096"/>
<path d="M9.85596 9.6499C9.85596 8.4639 10.8199 7.5 12.0049 7.5C13.1899 7.5 14.155 8.4639 14.155 9.6499C14.155 10.8359 13.1899 11.8 12.0049 11.8C10.8199 11.8 9.85596 10.8349 9.85596 9.6499ZM12.6421 13H11.3589C9.48189 13 8.50098 14.356 8.50098 15.697V16C8.50098 16.276 8.72498 16.5 9.00098 16.5H15.001C15.277 16.5 15.501 16.276 15.501 16V15.697C15.5 14.356 14.5191 13 12.6421 13Z" fill="#718096"/>
</svg>
