<svg width="24" height="24" viewBox="0 0 24 24" fill="none" xmlns="http://www.w3.org/2000/svg">
<path opacity="0.4" d="M3.30005 10.75H10.95C11.116 10.75 11.25 10.884 11.25 11.05V13.95C11.25 14.116 11.116 14.25 10.95 14.25H3.30005C3.13405 14.25 3 14.116 3 13.95V11.05C3 10.884 3.13405 10.75 3.30005 10.75Z" fill="#7CA7FB"/>
<path opacity="0.4" d="M3.30005 15.75H10.95C11.116 15.75 11.25 15.884 11.25 16.05V19.7C11.25 19.866 11.116 20 10.95 20H6C4 20 3 19 3 17V16.05C3 15.884 3.13405 15.75 3.30005 15.75Z" fill="#7CA7FB"/>
<path d="M21 7V8.94995C21 9.11595 20.866 9.25 20.7 9.25H3.30005C3.13405 9.25 3 9.11595 3 8.94995V7C3 5 4 4 6 4H18C20 4 21 5 21 7Z" fill="#718096"/>
<path opacity="0.4" d="M13.05 10.75H20.7C20.866 10.75 21 10.884 21 11.05V13.95C21 14.116 20.866 14.25 20.7 14.25H13.05C12.884 14.25 12.75 14.116 12.75 13.95V11.05C12.75 10.884 12.884 10.75 13.05 10.75Z" fill="#718096"/>
<path opacity="0.4" d="M13.05 15.75H20.7C20.866 15.75 21 15.884 21 16.05V17C21 19 20 20 18 20H13.05C12.884 20 12.75 19.866 12.75 19.7V16.05C12.75 15.884 12.884 15.75 13.05 15.75Z" fill="#718096"/>
</svg>
