<svg width="24" height="24" viewBox="0 0 24 24" fill="none" xmlns="http://www.w3.org/2000/svg">
<path d="M10.009 10.5C12.2182 10.5 14.009 8.70914 14.009 6.5C14.009 4.29086 12.2182 2.5 10.009 2.5C7.79989 2.5 6.00903 4.29086 6.00903 6.5C6.00903 8.70914 7.79989 10.5 10.009 10.5Z" fill="white"/>
<path opacity="0.4" d="M11.75 17.33C11.75 18.73 12.26 20.01 13.12 20.99C13.178 21.049 13.21 21.12 13.21 21.2C13.21 21.37 13.08 21.5 12.91 21.5H6C3.71 21.5 2.5 20.3 2.5 18.02C2.5 15.47 3.94 12.5 8 12.5H12C12.534 12.5 13.0249 12.5519 13.4709 12.6479C13.6769 12.6929 13.704 12.85 13.708 12.861C13.716 12.88 13.758 13.03 13.619 13.165C12.52 14.242 11.75 15.673 11.75 17.33Z" fill="white"/>
<path d="M22.53 21.47L20.699 19.639C21.15 18.983 21.417 18.19 21.417 17.334C21.417 15.083 19.585 13.251 17.333 13.251C15.082 13.251 13.25 15.083 13.25 17.334C13.25 19.585 15.082 21.417 17.333 21.417C18.188 21.417 18.9809 21.15 19.6379 20.699L21.469 22.531C21.615 22.677 21.807 22.751 21.999 22.751C22.191 22.751 22.3831 22.678 22.5291 22.531C22.8231 22.237 22.823 21.763 22.53 21.47ZM14.75 17.333C14.75 15.909 15.909 14.75 17.333 14.75C18.758 14.75 19.917 15.909 19.917 17.333C19.917 18.757 18.758 19.916 17.333 19.916C15.909 19.917 14.75 18.758 14.75 17.333Z" fill="white"/>
</svg>
