<svg width="74" height="32" viewBox="0 0 74 32" fill="none" xmlns="http://www.w3.org/2000/svg">
<path d="M17.1648 13.8693H12.9034C12.8466 13.4318 12.7301 13.0369 12.554 12.6847C12.3778 12.3324 12.1449 12.0312 11.8551 11.7812C11.5653 11.5312 11.2216 11.3409 10.8239 11.2102C10.4318 11.0739 9.99716 11.0057 9.51989 11.0057C8.6733 11.0057 7.94318 11.2131 7.32955 11.6278C6.72159 12.0426 6.25284 12.642 5.9233 13.4261C5.59943 14.2102 5.4375 15.1591 5.4375 16.2727C5.4375 17.4318 5.60227 18.4034 5.93182 19.1875C6.26705 19.9659 6.7358 20.554 7.33807 20.9517C7.94602 21.3437 8.66477 21.5398 9.49432 21.5398C9.96023 21.5398 10.3835 21.4801 10.7642 21.3608C11.1506 21.2415 11.4886 21.0682 11.7784 20.8409C12.0739 20.608 12.3153 20.3267 12.5028 19.9972C12.696 19.6619 12.8295 19.2841 12.9034 18.8636L17.1648 18.8892C17.0909 19.6619 16.8665 20.4233 16.4915 21.1733C16.1222 21.9233 15.6136 22.608 14.9659 23.2273C14.3182 23.8409 13.5284 24.3295 12.5966 24.6932C11.6705 25.0568 10.608 25.2386 9.40909 25.2386C7.82955 25.2386 6.41477 24.892 5.16477 24.1989C3.92045 23.5 2.9375 22.483 2.21591 21.1477C1.49432 19.8125 1.13352 18.1875 1.13352 16.2727C1.13352 14.3523 1.5 12.7244 2.23295 11.3892C2.96591 10.054 3.95739 9.03977 5.20739 8.34659C6.45739 7.65341 7.85795 7.30682 9.40909 7.30682C10.4659 7.30682 11.4432 7.45455 12.3409 7.75C13.2386 8.03977 14.0284 8.46591 14.7102 9.02841C15.392 9.58523 15.946 10.2699 16.3722 11.0824C16.7983 11.8949 17.0625 12.8239 17.1648 13.8693ZM19.5788 7.54545H24.8033L29.2351 18.3523H29.4396L33.8714 7.54545H39.0959V25H34.9879V14.2784H34.843L30.6499 24.8892H28.0249L23.8317 14.2188H23.6868V25H19.5788V7.54545ZM63.4837 25H57.032V7.54545H63.4751C65.2536 7.54545 66.7848 7.89489 68.0689 8.59375C69.3587 9.28693 70.353 10.2869 71.0518 11.5938C71.7507 12.8949 72.1001 14.4517 72.1001 16.2642C72.1001 18.0824 71.7507 19.6449 71.0518 20.9517C70.3587 22.2585 69.3672 23.2614 68.0774 23.9602C66.7876 24.6534 65.2564 25 63.4837 25ZM61.2507 21.4034H63.3217C64.299 21.4034 65.1257 21.2386 65.8018 20.9091C66.4837 20.5739 66.9979 20.0312 67.3445 19.2812C67.6967 18.5256 67.8729 17.5199 67.8729 16.2642C67.8729 15.0085 67.6967 14.0085 67.3445 13.2642C66.9922 12.5142 66.4723 11.9744 65.7848 11.6449C65.103 11.3097 64.2621 11.142 63.2621 11.142H61.2507V21.4034Z" fill="#181C27"/>
<path d="M41.6932 25V21.9659L48.0597 16.392C48.5369 15.9602 48.9432 15.5653 49.2784 15.2074C49.6136 14.8437 49.8693 14.4801 50.0455 14.1165C50.2216 13.7472 50.3097 13.3466 50.3097 12.9148C50.3097 12.4318 50.2045 12.0199 49.9943 11.679C49.7841 11.3324 49.4943 11.0653 49.125 10.8778C48.7557 10.6903 48.3324 10.5966 47.8551 10.5966C47.3722 10.5966 46.9489 10.696 46.5852 10.8949C46.2216 11.0881 45.9375 11.3693 45.733 11.7386C45.5341 12.108 45.4347 12.5568 45.4347 13.0852H41.4375C41.4375 11.8977 41.7045 10.8722 42.2386 10.0085C42.7727 9.14489 43.5227 8.48011 44.4886 8.0142C45.4602 7.54261 46.5881 7.30682 47.8722 7.30682C49.196 7.30682 50.3466 7.52841 51.3239 7.97159C52.3011 8.41477 53.0568 9.03409 53.5909 9.82954C54.1307 10.6193 54.4006 11.5369 54.4006 12.5824C54.4006 13.2472 54.267 13.9062 54 14.5597C53.733 15.2131 53.2528 15.9347 52.5597 16.7244C51.8722 17.5142 50.8949 18.4602 49.6278 19.5625L47.5398 21.4886V21.5994H54.6136V25H41.6932Z" fill="#002395"/>
</svg>
