<svg width="72" height="19" viewBox="0 0 72 19" fill="none" xmlns="http://www.w3.org/2000/svg">
<path d="M16.1648 6.86932H11.9034C11.8466 6.43182 11.7301 6.03693 11.554 5.68466C11.3778 5.33239 11.1449 5.03125 10.8551 4.78125C10.5653 4.53125 10.2216 4.34091 9.82386 4.21023C9.43182 4.07386 8.99716 4.00568 8.51989 4.00568C7.6733 4.00568 6.94318 4.21307 6.32955 4.62784C5.72159 5.04261 5.25284 5.64205 4.9233 6.42614C4.59943 7.21023 4.4375 8.15909 4.4375 9.27273C4.4375 10.4318 4.60227 11.4034 4.93182 12.1875C5.26705 12.9659 5.7358 13.554 6.33807 13.9517C6.94602 14.3437 7.66477 14.5398 8.49432 14.5398C8.96023 14.5398 9.38352 14.4801 9.7642 14.3608C10.1506 14.2415 10.4886 14.0682 10.7784 13.8409C11.0739 13.608 11.3153 13.3267 11.5028 12.9972C11.696 12.6619 11.8295 12.2841 11.9034 11.8636L16.1648 11.8892C16.0909 12.6619 15.8665 13.4233 15.4915 14.1733C15.1222 14.9233 14.6136 15.608 13.9659 16.2273C13.3182 16.8409 12.5284 17.3295 11.5966 17.6932C10.6705 18.0568 9.60795 18.2386 8.40909 18.2386C6.82955 18.2386 5.41477 17.892 4.16477 17.1989C2.92045 16.5 1.9375 15.483 1.21591 14.1477C0.494318 12.8125 0.133523 11.1875 0.133523 9.27273C0.133523 7.35227 0.5 5.72443 1.23295 4.3892C1.96591 3.05398 2.95739 2.03977 4.20739 1.34659C5.45739 0.653409 6.85795 0.306818 8.40909 0.306818C9.46591 0.306818 10.4432 0.454545 11.3409 0.75C12.2386 1.03977 13.0284 1.46591 13.7102 2.02841C14.392 2.58523 14.946 3.26989 15.3722 4.08239C15.7983 4.89489 16.0625 5.82386 16.1648 6.86932ZM18.5788 0.545454H23.8033L28.2351 11.3523H28.4396L32.8714 0.545454H38.0959V18H33.9879V7.27841H33.843L29.6499 17.8892H27.0249L22.8317 7.21875H22.6868V18H18.5788V0.545454ZM62.4837 18H56.032V0.545454H62.4751C64.2536 0.545454 65.7848 0.894886 67.0689 1.59375C68.3587 2.28693 69.353 3.28693 70.0518 4.59375C70.7507 5.89489 71.1001 7.4517 71.1001 9.2642C71.1001 11.0824 70.7507 12.6449 70.0518 13.9517C69.3587 15.2585 68.3672 16.2614 67.0774 16.9602C65.7876 17.6534 64.2564 18 62.4837 18ZM60.2507 14.4034H62.3217C63.299 14.4034 64.1257 14.2386 64.8018 13.9091C65.4837 13.5739 65.9979 13.0312 66.3445 12.2812C66.6967 11.5256 66.8729 10.5199 66.8729 9.2642C66.8729 8.00852 66.6967 7.00852 66.3445 6.2642C65.9922 5.5142 65.4723 4.97443 64.7848 4.64489C64.103 4.30966 63.2621 4.14204 62.2621 4.14204H60.2507V14.4034Z" fill="#181C27"/>
<path d="M40.6932 18V14.9659L47.0597 9.39205C47.5369 8.96023 47.9432 8.56534 48.2784 8.20739C48.6136 7.84375 48.8693 7.48011 49.0455 7.11648C49.2216 6.74716 49.3097 6.34659 49.3097 5.91477C49.3097 5.43182 49.2045 5.01989 48.9943 4.67898C48.7841 4.33239 48.4943 4.06534 48.125 3.87784C47.7557 3.69034 47.3324 3.59659 46.8551 3.59659C46.3722 3.59659 45.9489 3.69602 45.5852 3.89489C45.2216 4.08807 44.9375 4.36932 44.733 4.73864C44.5341 5.10795 44.4347 5.55682 44.4347 6.08523H40.4375C40.4375 4.89773 40.7045 3.87216 41.2386 3.00852C41.7727 2.14489 42.5227 1.48011 43.4886 1.0142C44.4602 0.542613 45.5881 0.306818 46.8722 0.306818C48.196 0.306818 49.3466 0.528409 50.3239 0.971591C51.3011 1.41477 52.0568 2.03409 52.5909 2.82954C53.1307 3.61932 53.4006 4.53693 53.4006 5.58239C53.4006 6.24716 53.267 6.90625 53 7.55966C52.733 8.21307 52.2528 8.93466 51.5597 9.72443C50.8722 10.5142 49.8949 11.4602 48.6278 12.5625L46.5398 14.4886V14.5994H53.6136V18H40.6932Z" fill="#246CF9"/>
</svg>
